<svg width="534" height="534" viewBox="0 0 534 534" fill="none" xmlns="http://www.w3.org/2000/svg">
<rect width="534" height="534" fill="white"/>
<path d="M221.106 348.538H242.205C248.557 348.538 254.41 350.262 259.764 353.71C262.577 355.525 264.845 358.157 266.57 361.605C268.294 365.053 269.156 369.137 269.156 373.856C269.156 381.024 267.069 387.059 262.894 391.959C258.72 396.769 251.461 399.173 241.116 399.173H232.132C231.315 399.173 230.635 398.901 230.09 398.357C229.636 397.812 229.41 397.177 229.41 396.451V395.226C229.41 393.411 230.317 392.504 232.132 392.504H239.482C249.373 392.504 255.771 390.417 258.675 386.242C261.125 382.794 262.35 378.62 262.35 373.72C262.35 367.277 260.263 362.603 256.089 359.699C252.005 356.796 247.15 355.344 241.524 355.344H221.923V441.097C221.923 441.823 221.651 442.459 221.106 443.003C220.562 443.548 219.927 443.82 219.201 443.82H217.84C217.114 443.82 216.478 443.548 215.934 443.003C215.39 442.459 215.117 441.823 215.117 441.097V354.527C215.117 352.168 215.526 350.58 216.342 349.763C217.159 348.946 218.747 348.538 221.106 348.538Z" fill="#2980BA"/>
<path d="M136.763 370.18C136.763 364.282 139.168 359.155 143.977 354.799C148.787 350.444 155.32 348.266 163.578 348.266C171.926 348.266 178.914 350.489 184.54 354.935C190.257 359.291 193.297 365.825 193.66 374.536C193.66 375.262 193.388 375.943 192.843 376.578C192.299 377.122 191.663 377.395 190.937 377.395H189.576C188.941 377.395 188.351 377.168 187.807 376.714C187.262 376.17 186.945 375.534 186.854 374.808C186.582 367.912 184.268 362.921 179.912 359.836C175.556 356.66 170.338 355.071 164.258 355.071C157.725 355.071 152.643 356.569 149.013 359.563C145.384 362.558 143.569 366.278 143.569 370.725C143.569 375.081 144.839 378.574 147.38 381.206C150.919 384.745 157.498 388.375 167.117 392.095C178.551 396.633 186.173 401.17 189.985 405.707C192.888 409.155 194.34 414.101 194.34 420.544C194.34 426.987 191.709 432.522 186.446 437.15C181.273 441.687 173.877 443.956 164.258 443.956C157.09 443.956 150.329 442.005 143.977 438.103C140.619 436.016 137.852 433.112 135.674 429.391C133.587 425.58 132.452 421.224 132.271 416.324C132.271 414.419 133.178 413.466 134.993 413.466H136.218C137.852 413.466 138.759 414.328 138.941 416.052C139.122 420.045 140.12 423.538 141.935 426.533C143.75 429.437 146.019 431.615 148.741 433.067C154.004 435.88 159.767 437.286 166.028 437.286C172.38 437.286 177.553 435.653 181.545 432.386C185.629 429.028 187.671 424.854 187.671 419.863C187.671 414.782 186.037 410.879 182.77 408.157C180.139 405.979 177.28 404.119 174.195 402.576C170.202 400.671 163.941 397.994 155.411 394.545C148.877 391.642 144.113 388.329 141.119 384.609C138.215 380.798 136.763 375.988 136.763 370.18Z" fill="#2980BA"/>
<path d="M64.0146 351.26C67.2814 349.718 70.1399 348.765 72.59 348.402C75.1309 347.948 77.581 347.721 79.9403 347.721C82.3904 347.721 84.8405 347.948 87.2907 348.402C89.7408 348.765 92.4177 349.627 95.3216 350.988C98.3161 352.258 100.993 353.937 103.352 356.024C105.712 358.021 107.799 360.834 109.614 364.464C111.429 368.003 112.563 372.131 113.017 376.85C113.017 378.847 112.109 379.845 110.294 379.845H109.069C107.436 379.845 106.529 379.028 106.347 377.395C105.893 373.583 104.94 370.226 103.489 367.322C102.037 364.418 100.358 362.195 98.4523 360.652C96.5466 359.11 94.3687 357.839 91.9186 356.841C88.2888 355.298 84.8859 354.527 81.7099 354.527C78.6245 354.527 76.0383 354.709 73.9512 355.071C71.9548 355.434 69.6862 356.206 67.1453 357.385C64.6045 358.565 62.3812 360.153 60.4756 362.15C58.57 364.055 56.9365 366.778 55.5754 370.317C54.3049 373.856 53.6697 377.939 53.6697 382.567V409.246C53.6697 413.874 54.3957 417.958 55.8476 421.497C57.2995 425.036 59.0237 427.803 61.0201 429.8C63.1072 431.705 65.5119 433.248 68.2343 434.428C72.59 436.333 76.6735 437.286 80.4848 437.286C84.2961 437.286 87.5175 436.969 90.1491 436.333C92.8715 435.607 95.5484 434.382 98.18 432.658C103.806 429.119 106.619 422.54 106.619 412.921C106.619 411.379 106.846 410.38 107.3 409.927C107.844 409.473 108.525 409.246 109.342 409.246H110.431C112.245 409.246 113.153 410.154 113.153 411.968C113.153 417.504 112.245 422.359 110.431 426.533C108.706 430.707 106.665 433.883 104.305 436.061C101.946 438.148 99.1782 439.827 96.0021 441.097C91.1019 443.003 86.7916 443.956 83.071 443.956C79.4412 443.956 76.2652 443.729 73.5428 443.275C70.9112 442.822 67.9167 441.823 64.5591 440.281C61.2923 438.738 58.3885 436.787 55.8476 434.428C53.3975 432.068 51.3104 428.756 49.5862 424.491C47.8621 420.135 47 415.19 47 409.654V382.023C47 376.306 47.8167 371.269 49.4501 366.914C51.1743 362.558 53.216 359.246 55.5754 356.977C58.0255 354.618 60.8386 352.712 64.0146 351.26Z" fill="#2980BA"/>
<path d="M454.025 443.584H451.494V434.51C451.494 432.761 451.221 431.496 450.676 430.714C450.141 429.932 449.236 429.541 447.96 429.541C446.88 429.541 445.959 430.035 445.198 431.022C444.447 432.01 444.071 433.193 444.071 434.572V443.584H441.54V434.201C441.54 431.094 440.342 429.541 437.945 429.541C436.834 429.541 435.918 430.009 435.198 430.945C434.478 431.871 434.118 433.08 434.118 434.572V443.584H431.587V427.782H434.118V430.282H434.179C435.301 428.368 436.936 427.411 439.087 427.411C440.167 427.411 441.108 427.715 441.911 428.322C442.713 428.918 443.264 429.705 443.562 430.683C444.735 428.502 446.484 427.411 448.809 427.411C452.286 427.411 454.025 429.556 454.025 433.846V443.584Z" fill="#2980BA"/>
<path d="M427.26 430.343C426.817 430.004 426.179 429.834 425.346 429.834C424.266 429.834 423.36 430.343 422.63 431.362C421.91 432.38 421.55 433.769 421.55 435.529V443.584H419.019V427.782H421.55V431.038H421.611C421.971 429.927 422.522 429.062 423.263 428.445C424.003 427.818 424.832 427.504 425.747 427.504C426.406 427.504 426.91 427.576 427.26 427.72V430.343Z" fill="#2980BA"/>
<path d="M405.525 443.954C403.189 443.954 401.322 443.219 399.923 441.748C398.534 440.266 397.84 438.306 397.84 435.868C397.84 433.214 398.565 431.141 400.016 429.649C401.466 428.157 403.426 427.411 405.895 427.411C408.251 427.411 410.088 428.137 411.405 429.587C412.732 431.038 413.395 433.049 413.395 435.621C413.395 438.142 412.68 440.163 411.25 441.686C409.83 443.198 407.922 443.954 405.525 443.954ZM405.71 429.541C404.085 429.541 402.799 430.096 401.852 431.208C400.906 432.308 400.432 433.831 400.432 435.775C400.432 437.648 400.911 439.124 401.867 440.204C402.824 441.285 404.105 441.825 405.71 441.825C407.346 441.825 408.601 441.295 409.475 440.235C410.36 439.176 410.803 437.668 410.803 435.714C410.803 433.738 410.36 432.216 409.475 431.146C408.601 430.076 407.346 429.541 405.71 429.541Z" fill="#2980BA"/>
<path d="M395.241 422.411C394.747 422.133 394.186 421.995 393.559 421.995C391.789 421.995 390.904 423.111 390.904 425.343V427.782H394.608V429.942H390.904V443.584H388.389V429.942H385.688V427.782H388.389V425.22C388.389 423.564 388.867 422.257 389.824 421.3C390.781 420.333 391.974 419.85 393.404 419.85C394.176 419.85 394.788 419.942 395.241 420.127V422.411Z" fill="#2980BA"/>
<path d="M382.472 443.43C381.876 443.759 381.089 443.924 380.111 443.924C377.344 443.924 375.96 442.38 375.96 439.294V429.942H373.244V427.782H375.96V423.924L378.491 423.106V427.782H382.472V429.942H378.491V438.846C378.491 439.906 378.671 440.662 379.031 441.115C379.391 441.568 379.988 441.794 380.821 441.794C381.459 441.794 382.009 441.619 382.472 441.269V443.43Z" fill="#2980BA"/>
<path d="M368.793 443.584H366.262V441.115H366.201C365.1 443.008 363.48 443.954 361.34 443.954C359.766 443.954 358.531 443.538 357.636 442.704C356.751 441.871 356.309 440.765 356.309 439.387C356.309 436.434 358.047 434.716 361.525 434.232L366.262 433.569C366.262 430.883 365.177 429.541 363.006 429.541C361.103 429.541 359.385 430.189 357.852 431.485V428.893C359.405 427.905 361.196 427.411 363.222 427.411C366.936 427.411 368.793 429.376 368.793 433.306V443.584ZM366.262 435.59L362.451 436.115C361.278 436.28 360.393 436.573 359.796 436.995C359.2 437.406 358.901 438.142 358.901 439.201C358.901 439.973 359.174 440.606 359.719 441.1C360.275 441.583 361.01 441.825 361.926 441.825C363.181 441.825 364.215 441.388 365.028 440.513C365.851 439.628 366.262 438.512 366.262 437.164V435.59Z" fill="#2980BA"/>
<path d="M350.778 443.584H348.247V420.189H350.778V443.584Z" fill="#2980BA"/>
<path d="M331.883 435.22V443.584H329.29V421.454H335.37C337.737 421.454 339.568 422.031 340.864 423.183C342.171 424.335 342.824 425.961 342.824 428.059C342.824 430.158 342.099 431.876 340.648 433.214C339.208 434.551 337.258 435.22 334.799 435.22H331.883ZM331.883 423.8V432.874H334.599C336.389 432.874 337.752 432.468 338.688 431.655C339.635 430.832 340.108 429.675 340.108 428.183C340.108 425.261 338.38 423.8 334.923 423.8H331.883Z" fill="#2980BA"/>
<path d="M437.327 406.517V403.801C438.706 404.82 440.224 405.329 441.88 405.329C444.102 405.329 445.213 404.588 445.213 403.107C445.213 402.685 445.115 402.33 444.92 402.042C444.735 401.744 444.478 401.481 444.148 401.255C443.829 401.029 443.449 400.828 443.006 400.653C442.574 400.468 442.106 400.278 441.602 400.082C440.903 399.804 440.285 399.527 439.75 399.249C439.226 398.961 438.783 398.642 438.423 398.292C438.073 397.932 437.806 397.526 437.621 397.073C437.446 396.62 437.358 396.09 437.358 395.483C437.358 394.743 437.528 394.089 437.868 393.523C438.207 392.947 438.66 392.469 439.226 392.088C439.791 391.697 440.434 391.404 441.155 391.209C441.885 391.013 442.636 390.915 443.408 390.915C444.776 390.915 446 391.152 447.081 391.625V394.187C445.918 393.426 444.581 393.045 443.068 393.045C442.595 393.045 442.168 393.102 441.787 393.215C441.407 393.318 441.077 393.467 440.8 393.662C440.532 393.858 440.321 394.094 440.167 394.372C440.023 394.64 439.951 394.938 439.951 395.267C439.951 395.679 440.023 396.023 440.167 396.301C440.321 396.579 440.542 396.826 440.831 397.042C441.119 397.258 441.468 397.454 441.88 397.628C442.291 397.803 442.76 397.994 443.284 398.199C443.984 398.467 444.611 398.745 445.167 399.033C445.722 399.311 446.196 399.629 446.587 399.99C446.978 400.339 447.276 400.746 447.482 401.209C447.698 401.672 447.806 402.222 447.806 402.86C447.806 403.642 447.631 404.321 447.281 404.897C446.942 405.473 446.484 405.951 445.908 406.332C445.332 406.713 444.668 406.996 443.917 407.181C443.166 407.366 442.379 407.459 441.556 407.459C439.93 407.459 438.521 407.145 437.327 406.517Z" fill="#2980BA"/>
<path d="M432.861 399.82H421.704C421.745 401.579 422.218 402.937 423.124 403.894C424.029 404.851 425.274 405.329 426.858 405.329C428.638 405.329 430.274 404.743 431.766 403.57V405.946C430.377 406.955 428.54 407.459 426.256 407.459C424.024 407.459 422.27 406.744 420.994 405.314C419.718 403.873 419.08 401.852 419.08 399.249C419.08 396.79 419.775 394.789 421.164 393.246C422.563 391.692 424.296 390.915 426.364 390.915C428.432 390.915 430.032 391.584 431.164 392.922C432.295 394.259 432.861 396.116 432.861 398.493V399.82ZM430.269 397.675C430.258 396.214 429.904 395.077 429.204 394.264C428.515 393.451 427.553 393.045 426.318 393.045C425.125 393.045 424.111 393.472 423.278 394.326C422.445 395.18 421.93 396.296 421.735 397.675H430.269Z" fill="#2980BA"/>
<path d="M414.753 406.363C413.539 407.093 412.099 407.459 410.432 407.459C408.179 407.459 406.358 406.728 404.969 405.267C403.591 403.796 402.901 401.893 402.901 399.557C402.901 396.955 403.647 394.866 405.139 393.292C406.631 391.708 408.622 390.915 411.111 390.915C412.5 390.915 413.725 391.173 414.784 391.687V394.28C413.611 393.457 412.356 393.045 411.019 393.045C409.404 393.045 408.076 393.626 407.037 394.789C406.008 395.941 405.494 397.459 405.494 399.341C405.494 401.193 405.978 402.654 406.945 403.724C407.922 404.794 409.229 405.329 410.864 405.329C412.243 405.329 413.539 404.871 414.753 403.956V406.363Z" fill="#2980BA"/>
<path d="M396.043 387.273C395.591 387.273 395.205 387.119 394.886 386.811C394.567 386.502 394.408 386.111 394.408 385.638C394.408 385.164 394.567 384.773 394.886 384.465C395.205 384.146 395.591 383.986 396.043 383.986C396.506 383.986 396.897 384.146 397.216 384.465C397.545 384.773 397.71 385.164 397.71 385.638C397.71 386.09 397.545 386.476 397.216 386.795C396.897 387.114 396.506 387.273 396.043 387.273ZM397.278 407.088H394.747V391.286H397.278V407.088Z" fill="#2980BA"/>
<path d="M390.435 391.286L384.139 407.088H381.655L375.667 391.286H378.445L382.457 402.767C382.755 403.611 382.941 404.347 383.013 404.974H383.074C383.177 404.182 383.342 403.467 383.568 402.829L387.766 391.286H390.435Z" fill="#2980BA"/>
<path d="M373.685 393.848C373.243 393.508 372.605 393.338 371.772 393.338C370.692 393.338 369.786 393.848 369.056 394.866C368.336 395.885 367.975 397.273 367.975 399.033V407.088H365.445V391.286H367.975V394.542H368.037C368.397 393.431 368.948 392.567 369.688 391.949C370.429 391.322 371.257 391.008 372.173 391.008C372.831 391.008 373.336 391.08 373.685 391.224V393.848Z" fill="#2980BA"/>
<path d="M360.022 399.82H348.864C348.905 401.579 349.379 402.937 350.284 403.894C351.189 404.851 352.434 405.329 354.019 405.329C355.798 405.329 357.434 404.743 358.926 403.57V405.946C357.537 406.955 355.701 407.459 353.417 407.459C351.184 407.459 349.43 406.744 348.154 405.314C346.879 403.873 346.241 401.852 346.241 399.249C346.241 396.79 346.935 394.789 348.324 393.246C349.723 391.692 351.457 390.915 353.525 390.915C355.593 390.915 357.192 391.584 358.324 392.922C359.456 394.259 360.022 396.116 360.022 398.493V399.82ZM357.429 397.675C357.419 396.214 357.064 395.077 356.364 394.264C355.675 393.451 354.713 393.045 353.478 393.045C352.285 393.045 351.272 393.472 350.438 394.326C349.605 395.18 349.091 396.296 348.895 397.675H357.429Z" fill="#2980BA"/>
<path d="M328.256 406.193V403.138C328.606 403.446 329.023 403.724 329.506 403.971C330 404.218 330.515 404.429 331.049 404.604C331.595 404.768 332.14 404.897 332.685 404.99C333.231 405.082 333.735 405.128 334.198 405.128C335.792 405.128 336.981 404.835 337.762 404.249C338.555 403.652 338.951 402.798 338.951 401.687C338.951 401.09 338.817 400.571 338.549 400.128C338.292 399.686 337.932 399.285 337.469 398.925C337.006 398.554 336.456 398.205 335.818 397.875C335.19 397.536 334.511 397.181 333.781 396.81C333.009 396.42 332.289 396.023 331.62 395.622C330.952 395.221 330.37 394.779 329.877 394.295C329.383 393.812 328.992 393.266 328.704 392.659C328.426 392.042 328.287 391.322 328.287 390.499C328.287 389.491 328.508 388.616 328.951 387.875C329.393 387.124 329.974 386.507 330.695 386.023C331.415 385.54 332.233 385.18 333.148 384.943C334.074 384.707 335.016 384.588 335.972 384.588C338.153 384.588 339.743 384.851 340.741 385.375V388.292C339.434 387.387 337.757 386.934 335.71 386.934C335.144 386.934 334.578 386.996 334.012 387.119C333.447 387.232 332.942 387.423 332.5 387.69C332.058 387.958 331.698 388.302 331.42 388.724C331.142 389.146 331.003 389.66 331.003 390.267C331.003 390.833 331.106 391.322 331.312 391.733C331.528 392.145 331.842 392.52 332.253 392.86C332.665 393.199 333.164 393.529 333.75 393.848C334.347 394.166 335.031 394.516 335.803 394.897C336.595 395.288 337.346 395.699 338.056 396.131C338.766 396.564 339.388 397.042 339.923 397.567C340.458 398.091 340.88 398.673 341.188 399.31C341.507 399.948 341.667 400.679 341.667 401.502C341.667 402.592 341.451 403.518 341.019 404.28C340.597 405.031 340.021 405.643 339.29 406.116C338.57 406.589 337.737 406.929 336.79 407.135C335.844 407.351 334.846 407.459 333.796 407.459C333.447 407.459 333.015 407.428 332.5 407.366C331.986 407.315 331.461 407.232 330.926 407.119C330.391 407.016 329.882 406.888 329.398 406.733C328.925 406.569 328.544 406.389 328.256 406.193Z" fill="#2980BA"/>
<path d="M487.365 370.593H484.834V367.907H484.772C483.599 369.944 481.788 370.963 479.34 370.963C477.354 370.963 475.765 370.258 474.571 368.849C473.388 367.429 472.797 365.5 472.797 363.062C472.797 360.448 473.455 358.355 474.772 356.781C476.089 355.207 477.843 354.42 480.034 354.42C482.205 354.42 483.784 355.274 484.772 356.981H484.834V347.197H487.365V370.593ZM484.834 363.447V361.117C484.834 359.841 484.412 358.761 483.568 357.876C482.725 356.992 481.655 356.549 480.358 356.549C478.815 356.549 477.601 357.115 476.716 358.247C475.832 359.378 475.389 360.942 475.389 362.938C475.389 364.759 475.811 366.199 476.655 367.259C477.509 368.309 478.651 368.833 480.081 368.833C481.49 368.833 482.632 368.324 483.507 367.305C484.391 366.287 484.834 365.001 484.834 363.447Z" fill="#2980BA"/>
<path d="M468.454 363.324H457.297C457.338 365.083 457.811 366.441 458.716 367.398C459.622 368.355 460.867 368.833 462.451 368.833C464.231 368.833 465.867 368.247 467.358 367.074V369.451C465.969 370.459 464.133 370.963 461.849 370.963C459.617 370.963 457.862 370.248 456.587 368.818C455.311 367.378 454.673 365.356 454.673 362.753C454.673 360.294 455.368 358.293 456.756 356.75C458.156 355.196 459.889 354.42 461.957 354.42C464.025 354.42 465.625 355.088 466.756 356.426C467.888 357.763 468.454 359.62 468.454 361.997V363.324ZM465.861 361.179C465.851 359.718 465.496 358.581 464.797 357.768C464.107 356.956 463.145 356.549 461.911 356.549C460.717 356.549 459.704 356.976 458.871 357.83C458.037 358.684 457.523 359.8 457.327 361.179H465.861Z" fill="#2980BA"/>
<path d="M450.793 370.438C450.197 370.767 449.41 370.932 448.432 370.932C445.665 370.932 444.281 369.389 444.281 366.302V356.951H441.565V354.79H444.281V350.932L446.812 350.114V354.79H450.793V356.951H446.812V365.855C446.812 366.915 446.992 367.671 447.352 368.123C447.712 368.576 448.309 368.802 449.142 368.802C449.78 368.802 450.331 368.627 450.793 368.278V370.438Z" fill="#2980BA"/>
<path d="M438.056 369.867C436.842 370.598 435.401 370.963 433.735 370.963C431.482 370.963 429.661 370.232 428.272 368.772C426.893 367.3 426.204 365.397 426.204 363.062C426.204 360.459 426.95 358.37 428.442 356.796C429.933 355.212 431.924 354.42 434.414 354.42C435.803 354.42 437.027 354.677 438.087 355.191V357.784C436.914 356.961 435.659 356.549 434.321 356.549C432.706 356.549 431.379 357.131 430.34 358.293C429.311 359.445 428.797 360.963 428.797 362.846C428.797 364.697 429.28 366.158 430.247 367.228C431.225 368.298 432.531 368.833 434.167 368.833C435.546 368.833 436.842 368.375 438.056 367.46V369.867Z" fill="#2980BA"/>
<path d="M421.861 363.324H410.704C410.745 365.083 411.218 366.441 412.124 367.398C413.029 368.355 414.274 368.833 415.858 368.833C417.638 368.833 419.274 368.247 420.766 367.074V369.451C419.377 370.459 417.54 370.963 415.256 370.963C413.024 370.963 411.27 370.248 409.994 368.818C408.718 367.378 408.08 365.356 408.08 362.753C408.08 360.294 408.775 358.293 410.164 356.75C411.563 355.196 413.296 354.42 415.364 354.42C417.432 354.42 419.032 355.088 420.164 356.426C421.295 357.763 421.861 359.62 421.861 361.997V363.324ZM419.269 361.179C419.258 359.718 418.904 358.581 418.204 357.768C417.515 356.956 416.553 356.549 415.318 356.549C414.125 356.549 413.111 356.976 412.278 357.83C411.445 358.684 410.93 359.8 410.735 361.179H419.269Z" fill="#2980BA"/>
<path d="M402.796 370.593H400.266V361.58C400.266 358.226 399.041 356.549 396.593 356.549C395.327 356.549 394.278 357.028 393.445 357.984C392.622 358.931 392.21 360.13 392.21 361.58V370.593H389.679V354.79H392.21V357.413H392.272C393.465 355.418 395.194 354.42 397.457 354.42C399.185 354.42 400.507 354.98 401.423 356.102C402.339 357.213 402.796 358.823 402.796 360.932V370.593Z" fill="#2980BA"/>
<path d="M383.315 370.593H380.784V361.58C380.784 358.226 379.56 356.549 377.111 356.549C375.846 356.549 374.796 357.028 373.963 357.984C373.14 358.931 372.729 360.13 372.729 361.58V370.593H370.198V354.79H372.729V357.413H372.79C373.984 355.418 375.712 354.42 377.975 354.42C379.704 354.42 381.026 354.98 381.942 356.102C382.857 357.213 383.315 358.823 383.315 360.932V370.593Z" fill="#2980BA"/>
<path d="M356.704 370.963C354.368 370.963 352.501 370.227 351.102 368.756C349.713 367.275 349.019 365.315 349.019 362.876C349.019 360.222 349.744 358.149 351.195 356.657C352.645 355.166 354.605 354.42 357.074 354.42C359.43 354.42 361.267 355.145 362.583 356.596C363.911 358.046 364.574 360.058 364.574 362.63C364.574 365.15 363.859 367.172 362.429 368.694C361.009 370.207 359.101 370.963 356.704 370.963ZM356.889 356.549C355.264 356.549 353.978 357.105 353.031 358.216C352.085 359.317 351.611 360.839 351.611 362.784C351.611 364.656 352.09 366.133 353.046 367.213C354.003 368.293 355.284 368.833 356.889 368.833C358.525 368.833 359.78 368.303 360.654 367.244C361.539 366.184 361.982 364.677 361.982 362.722C361.982 360.747 361.539 359.224 360.654 358.154C359.78 357.084 358.525 356.549 356.889 356.549Z" fill="#2980BA"/>
<path d="M344.352 369.667C342.716 370.531 340.679 370.963 338.241 370.963C335.093 370.963 332.572 369.95 330.679 367.923C328.786 365.896 327.84 363.237 327.84 359.944C327.84 356.405 328.904 353.545 331.034 351.364C333.164 349.183 335.864 348.092 339.136 348.092C341.235 348.092 342.973 348.396 344.352 349.003V351.765C342.768 350.881 341.019 350.438 339.105 350.438C336.564 350.438 334.501 351.287 332.917 352.984C331.343 354.682 330.556 356.951 330.556 359.79C330.556 362.486 331.291 364.636 332.762 366.241C334.244 367.835 336.183 368.633 338.58 368.633C340.803 368.633 342.726 368.139 344.352 367.151V369.667Z" fill="#2980BA"/>
<rect x="293.836" y="347.844" width="11.6259" height="98.8198" fill="#FFB400"/>
<path d="M270.051 141.744L309.72 163.165V211.562L270.051 190.14V141.744Z" fill="#FFB400"/>
<path d="M355.736 141.744L316.067 163.165V211.562L355.736 190.14V141.744Z" fill="#2980BA"/>
<path d="M178.018 141.744L217.687 163.165V211.562L178.018 190.14V141.744Z" fill="#2980BA"/>
<path d="M178.018 198.074L217.687 219.496V267.892L178.018 246.471V198.074Z" fill="#2980BA"/>
<path d="M224.034 221.876L263.704 243.297V291.694L224.034 270.272V221.876Z" fill="#2980BA"/>
<path d="M263.704 141.744L224.034 163.165V211.562L263.704 190.14V141.744Z" fill="#FFB400"/>
<path d="M309.72 221.876L270.051 243.297V291.694L309.72 270.272V221.876Z" fill="#2980BA"/>
<path d="M171.671 198.074L132.001 219.496V267.892L171.671 246.471V198.074Z" fill="#FFB400"/>
<path d="M312.894 113.975L271.637 136.19L312.894 158.405L354.15 136.19L312.894 113.975Z" fill="#2980BA"/>
<path d="M358.91 245.677L317.654 267.892L358.91 290.107L400.166 267.892L358.91 245.677Z" fill="#FFB400"/>
<path d="M266.877 87L225.621 109.215L266.877 131.43L308.133 109.215L266.877 87Z" fill="#2980BA"/>
</svg>
