<?xml version="1.0" encoding="utf-8"?>
<!-- Generator: Adobe Illustrator 18.1.1, SVG Export Plug-In . SVG Version: 6.00 Build 0)  -->
<svg version="1.1" id="Layer_1" xmlns="http://www.w3.org/2000/svg"  x="0px" y="0px"
	 viewBox="0 0 135 80" enable-background="new 0 0 135 80" xml:space="preserve">
<g>
	<path fill="#FFFFFF" d="M14.4,35.9v8.3H4.9v-8.3H1.1v18.7h3.8v-8.7h9.5l0,6.7c0,0.4,0.1,0.8,0.2,1c0.2,0.3,0.4,0.5,0.6,0.6
		c0.2,0.1,0.5,0.2,0.8,0.3c0.3,0,0.5,0.1,0.7,0.1c0.1,0,1.5,0,1.5,0V35.9H14.4z"/>
	<path fill="#FFFFFF" d="M89.3,54.6V35.9h-3.7L78,49.8l-7.6-13.9h-3.8v18.7h2V40.1l8.1,14.5h1l7.8-14.4v12.4c0,0.4,0.1,0.8,0.3,1
		c0.2,0.3,0.4,0.5,0.6,0.6c0.2,0.1,0.5,0.2,0.8,0.3c0.3,0,0.5,0.1,0.7,0.1H89.3z"/>
	<path fill="#FFFFFF" d="M113.3,54.6l-9.6-19.2h-1.1l-9.8,19.2H95l3-6h7l-1-1.9h-5l3.2-6.3l6.3,12.7c0.2,0.5,0.6,0.9,0.9,1.1
		c0.4,0.2,0.8,0.3,1.4,0.3H113.3z"/>
	<path fill="#FFFFFF" d="M133.3,35.9c-0.1,0-0.2,0-0.4,0c-0.1,0-0.3,0.1-0.4,0.1c-0.1,0.1-0.2,0.2-0.3,0.3c-0.1,0.1-0.1,0.3-0.1,0.5
		V49l-12.8-13.1h-2.5v18.7h2.2V40.5L132,54.2c0.5,0.5,1.3,0.5,2,0.5h0.3V35.9H133.3z"/>
	<path fill="#FFFFFF" d="M32.8,35.5h-1.1l-9.8,19.2H24l7.3-14.2l3.1,6.3h-5l-1,1.9h7l2.2,4.5c0.2,0.5,0.6,0.9,0.9,1.1
		c0.4,0.2,0.8,0.3,1.4,0.3h2.4L32.8,35.5z"/>
	<path fill="#FFFFFF" d="M57.4,53.1l-5.7-7.1h-2v8.6h-3.8V35.9h7c0,0,2.9,0,4.8,0.9c1.9,1,2.7,2.3,2.7,4.1s-1,3.8-4.6,4.8l7.3,8.9
		h-2.9c0,0-0.6,0-1.3-0.2C58.2,54.1,57.4,53.1,57.4,53.1z M49.8,37.5v7.1h1.8c0,0,1.8,0,2.9-0.6c1.1-0.7,2-1.6,2-3
		c0-1.4-0.9-2.6-2.1-3.1c0,0-0.7-0.4-2-0.4C51.1,37.5,49.8,37.5,49.8,37.5z"/>
	<path fill="#FFFFFF" d="M55.2,66.1h-0.4L54,64.3h-2.5l-0.8,1.8h-0.4l2.3-5.2h0.2L55.2,66.1z M52.8,61.6L51.7,64h2.2L52.8,61.6z"/>
	<path fill="#FFFFFF" d="M101.7,61.8c-0.6-0.3-1.2-0.5-1.8-0.5c-1.3,0-2.2,1-2.2,2.3c0,1.3,0.9,2.3,2.3,2.3c0.6,0,1.1-0.2,1.8-0.5
		v0.4c-0.6,0.3-1.2,0.5-1.8,0.5c-1.5,0-2.7-1.1-2.7-2.7c0-1.6,1.3-2.7,2.7-2.7c0.6,0,1.2,0.1,1.8,0.4V61.8z"/>
	<path fill="#FFFFFF" d="M105.4,66.2c-1.5,0-2.7-1.2-2.7-2.7c0-1.5,1.2-2.7,2.7-2.7c1.5,0,2.7,1.2,2.7,2.7
		C108.1,65,106.9,66.2,105.4,66.2z M105.4,61.3c-1.3,0-2.3,1-2.3,2.3c0,1.3,1,2.3,2.3,2.3c1.3,0,2.3-1,2.3-2.3
		C107.6,62.3,106.7,61.3,105.4,61.3z"/>
	<path fill="#FFFFFF" d="M113.6,61h0.4v5.2h-0.4v-4.6h0l-1.9,2.4l-1.9-2.4h0v4.6h-0.4V61h0.4l1.9,2.4L113.6,61z"/>
	<path fill="#FFFFFF" d="M117,61c1.2,0,1.7,0.6,1.7,1.4c0,0.7-0.4,1.4-1.7,1.4h-1v2.4h-0.4V61H117z M116,63.4h0.9
		c0.9,0,1.3-0.5,1.3-1c0-0.6-0.4-1-1.3-1h-1V63.4z"/>
	<path fill="#FFFFFF" d="M123.4,66.1H123l-0.8-1.8h-2.5l-0.8,1.8h-0.4l2.3-5.2h0.2L123.4,66.1z M121,61.6l-1.1,2.4h2.2L121,61.6z"/>
	<path fill="#FFFFFF" d="M129,66.1h-0.3l-3.9-4.5v4.5h-0.4V61h0.3l3.8,4.5V61h0.4V66.1z"/>
	<path fill="#FFFFFF" d="M132.3,63.4v2.8h-0.4v-2.8l-2-2.4h0.5l1.7,2.1l1.7-2.1h0.5L132.3,63.4z"/>
	<path fill="#FFFFFF" d="M60.7,64.7c0,0.1,0,0.3,0,0.4c0,0.2-0.2,0.4-0.5,0.4c-0.3,0-0.5-0.2-0.5-0.5l0-0.5h-1.4v0.4
		c0,1.2,0.9,1.5,1.9,1.5c0.9,0,1.7-0.3,1.8-1.2c0.1-0.5,0-0.7,0-0.9c-0.2-1.1-2.2-1.4-2.3-2c0-0.1,0-0.2,0-0.3
		c0-0.2,0.1-0.4,0.5-0.4c0.3,0,0.5,0.2,0.5,0.5v0.3h1.3v-0.4c0-1.1-1-1.3-1.7-1.3c-0.9,0-1.7,0.3-1.8,1.2c0,0.2,0,0.4,0,0.7
		C58.6,63.7,60.4,64,60.7,64.7"/>
	<path fill="#FFFFFF" d="M77.4,64.7c0,0.1,0,0.3,0,0.4c0,0.2-0.2,0.3-0.5,0.3c-0.3,0-0.5-0.2-0.5-0.5v-0.5H75v0.4
		c0,1.2,0.9,1.5,1.8,1.5c0.9,0,1.7-0.3,1.8-1.2c0.1-0.4,0-0.7,0-0.8c-0.2-1.1-2.1-1.4-2.3-2c0-0.1,0-0.2,0-0.3
		c0-0.2,0.1-0.4,0.5-0.4c0.3,0,0.5,0.2,0.5,0.5v0.3h1.3v-0.4c0-1.1-1-1.3-1.7-1.3c-0.9,0-1.6,0.3-1.8,1.2c0,0.2,0,0.4,0,0.7
		C75.3,63.7,77.1,64,77.4,64.7"/>
	<polygon fill="#FFFFFF" points="88,65.2 87.9,61 89.2,61 89.2,66.1 87.3,66.1 86,61.8 86.1,66.1 84.9,66.1 84.9,61 86.8,61 	"/>
	<polygon fill="#FFFFFF" points="65,61.3 64.2,66.2 62.9,66.2 63.8,61 66.1,61 67,66.2 65.7,66.2 	"/>
	<polygon fill="#FFFFFF" points="72.4,61.3 71.5,66.2 70.2,66.2 69.4,61.3 69.3,66.2 68.1,66.2 68.2,61 70.3,61 70.9,65 71.5,61 
		73.6,61 73.7,66.2 72.5,66.2 	"/>
	<path fill="#FFFFFF" d="M81.6,65.4c0.4,0,0.5-0.3,0.5-0.4c0-0.1,0-0.1,0-0.2V61h1.3v3.7c0,0.1,0,0.3,0,0.3c-0.1,1-0.8,1.3-1.8,1.3
		c-0.9,0-1.7-0.3-1.8-1.3c0-0.1,0-0.3,0-0.3V61h1.3v3.9c0,0.1,0,0.1,0,0.2C81.2,65.2,81.3,65.4,81.6,65.4"/>
	<path fill="#FFFFFF" d="M92.3,65.4c0.4,0,0.5-0.2,0.5-0.4c0-0.1,0-0.1,0-0.2V64h-0.5v-0.8h1.8v1.4c0,0.1,0,0.2,0,0.3
		c-0.1,1-0.9,1.3-1.8,1.3c-0.9,0-1.7-0.3-1.8-1.3c0-0.2,0-0.2,0-0.3v-2.2c0-0.1,0-0.3,0-0.3c0.1-1,0.9-1.3,1.8-1.3
		c0.9,0,1.7,0.3,1.8,1.3c0,0.2,0,0.3,0,0.3v0.2h-1.3v-0.3c0,0,0-0.1,0-0.2c0-0.1-0.1-0.4-0.5-0.4c-0.4,0-0.5,0.3-0.5,0.4
		c0,0.1,0,0.2,0,0.3v2.4c0,0.1,0,0.1,0,0.2C91.8,65.1,92,65.4,92.3,65.4"/>
	<path fill="#FFFFFF" d="M24.1,57.8c0.2,1.7-1.8,13.9,18.7,18c20.2,4,45.4-6.6,45.4-6.6h1.5c0,0-22.1,11.2-44.8,7.9
		S23.3,60.5,23.2,57.8H24.1z"/>
	<path fill="#FFFFFF" d="M66.3,69.2c0,0-14.7,8.6-25.5,9.1C30,78.8,20.7,74.9,23.5,57.8h-0.9c0,0-2.4,14.7,5.9,19.2
		c8.3,4.5,19.2,4.9,42.6-7.8H66.3z"/>
	<path fill="#FFFFFF" d="M37.9,25.4c0,0,4.5-2.6,7.8-4c8.2-3.6,15.5-5.7,22.2-7c5.4-1,21.9-3.7,34.9,0.5c0.2,3.1-0.6,6.7-2.3,10.5
		h5.4c1.3-2.8,2.2-5.5,2.6-8.1c2,1.1,3.9,2.5,5.5,4.1c1.5,1.5,2.9,3.9,2.9,3.9h2.4c0,0-1-2.3-3.2-4.7c-2.1-2.2-4.6-3.8-7.4-5
		c0.4-4.9-1.2-9.1-5.2-12c-9.7-6.9-28.9-2.9-46.6,6.8c-7.9,4.3-15.2,9.6-21.1,14.9H37.9z M92.8,11.8c-8.6-0.7-18.3,0.3-24.9,1.7
		c-8,1.7-15.4,4-22.4,7.1c-1.6,0.7-3.1,1.5-4.7,2.3c4.8-3.7,10.3-7.3,16.1-10.3C73.3,4,90.5,0.8,98.6,7c2.2,1.7,3.5,3.9,4,6.5
		C98.7,12.4,95.1,12,92.8,11.8z"/>
</g>
</svg>
